HIERARCHY
ROOT pelvis
{
  OFFSET 0 100 0
  CHANNELS 6 Xposition Yposition Zposition Zrotation Xrotation Yrotation
  JOINT pelvis_right_femur
  {
    OFFSET -10.78128 -3.44521 -0.5502486
    CHANNELS 3 Zrotation Xrotation Yrotation
    JOINT right_femur_tibia
    {
      OFFSET -0.8047443 -44.0398 -0.1307829
      CHANNELS 3 Zrotation Xrotation Yrotation
      JOINT right_tibia_foot
      {
        OFFSET 3.006224 -47.83518 -5
        CHANNELS 3 Zrotation Xrotation Yrotation
        End Site
        {
          OFFSET 0 -5 15
        }
      }
    }
  }
  JOINT pelvis_left_femur
  {
    OFFSET 10.78128 -3.44521 -0.5502486
    CHANNELS 3 Zrotation Xrotation Yrotation
    JOINT left_femur_tibia
    {
      OFFSET 0.8047443 -44.0398 -0.1307829
      CHANNELS 3 Zrotation Xrotation Yrotation
      JOINT left_tibia_foot
      {
        OFFSET -4.370144 -48.10324 -4.275266
        CHANNELS 3 Zrotation Xrotation Yrotation
        End Site
        {
          OFFSET 0 -5 15
        }
      }
    }
  }
  JOINT pelvis_spine1
  {
    OFFSET 0 6.468898 -3.129235
    CHANNELS 3 Zrotation Xrotation Yrotation
    JOINT spine1
    {
      OFFSET 0 23.15396 4.99043
      CHANNELS 3 Zrotation Xrotation Yrotation
      JOINT spine2
      {
        OFFSET 0 20.79997 -5.064912
        CHANNELS 3 Zrotation Xrotation Yrotation
        JOINT neck
        {
          OFFSET 0 14.38658 9.616178
          CHANNELS 3 Zrotation Xrotation Yrotation
          End Site
          {
            OFFSET 0 20 0
          }
        }
      }
      JOINT right_manubrium
      {
        OFFSET -5.722621 16.35077 3.967754
        CHANNELS 3 Zrotation Xrotation Yrotation
        JOINT right_clavicle
        {
          OFFSET -13.16364 1.694482 -4.693211
          CHANNELS 3 Zrotation Xrotation Yrotation
          JOINT right_humerus
          {
            OFFSET -28.5034 -0.3100689 -2.792744
            CHANNELS 3 Zrotation Xrotation Yrotation
            JOINT right_radius
            {
              OFFSET -25.15693 0.02248979 -1.271978
              CHANNELS 3 Zrotation Xrotation Yrotation
              End Site
              {
                OFFSET -15 0 0
              }
            }
          }
        }
      }
      JOINT left_manubrium
      {
        OFFSET 5.722621 16.35077 3.967754
        CHANNELS 3 Zrotation Xrotation Yrotation
        JOINT left_clavicle
        {
          OFFSET 13.16364 1.694482 -4.693211
          CHANNELS 3 Zrotation Xrotation Yrotation
          JOINT left_humerus
          {
            OFFSET 29.39168 -1.063119 -2.237045
            CHANNELS 3 Zrotation Xrotation Yrotation
            JOINT left_radius
            {
              OFFSET 24.59957 -0.9528479 0.9047498
              CHANNELS 3 Zrotation Xrotation Yrotation
              End Site
              {
                OFFSET 15 -0 -0
              }
            }
          }
        }
      }
    }
  }
}
MOTION
Frames: 9
Frame Time: 0.0416666666667
-26.48038 106.1441 3044.71 -0.1851739 -8.927735 -11.10834 -0.01572239 13.20196 2.953678 -0 41.07842 -0 -1.126188 -2.152238 -2.707959 -2.83949 -14.61446 -7.171509 -0 17.93224 -0 -4.711693 -9.380061 18.79662 -0.7543998 -0.4542348 8.160998 -1.462193 12.36184 -3.042577 1.582265 22.07807 4.595723 2.351937 -17.83688 5.780261 -1.191167 -24.78115 11.48216 85.06819 21.54374 -6.481861 -0 0 23.85727 -27.04817 11.53659 15.15272 3.619296 -17.71822 -4.912665 -94.00106 15.90099 29.67359 0 0 -5.599449 3.352832 9.707132 8.430079
-26.75167 107.0742 3051.334 0.04353523 -9.172398 -10.39065 -0.5936298 9.155731 3.177657 -0 47.4703 -0 -0.3692325 0.712861 -3.652362 -4.172457 -9.569243 -8.394489 -0 18.73694 -0 -4.985434 -10.71166 18.44251 -0.7565897 -0.4644433 7.765158 -1.273634 12.31844 -3.394997 1.58941 22.10133 4.686994 2.367314 -17.92704 5.891034 -1.169551 -24.16492 11.44623 85.73424 21.68591 -7.6977 -0 0 22.59794 -26.62986 11.58794 14.68114 3.809203 -18.2351 -5.048628 -93.12197 16.11617 28.01412 0 0 -7.159615 3.770615 9.80685 7.890938
-27.00093 108.2453 3057.764 0.257345 -8.90267 -9.527542 -0.7841054 4.016208 3.24851 -0 50.89937 -0 -0.09956349 2.473521 -4.368768 -5.250296 -4.279686 -9.702173 -0 18.67447 -0 -4.774745 -12.28711 18.17762 -0.7550148 -0.4890038 7.24764 -1.019072 12.28195 -3.873244 1.590031 22.11873 4.808306 2.394301 -18.05996 6.025257 -1.138546 -23.37278 11.41234 86.63842 21.86455 -9.32748 -0 0 20.9372 -26.07826 11.65303 14.05523 4.058396 -18.95027 -5.239676 -91.95749 16.30532 25.82966 0 0 -9.248029 4.371105 9.941286 7.116213
-27.23183 109.3738 3063.877 0.3877607 -8.07933 -8.640663 -0.5112835 -1.707753 3.150043 -0 50.23331 -0 -0.4797209 2.760106 -4.686095 -5.884689 0.5639527 -10.93237 -0 17.65834 -0 -4.061282 -13.92307 18.02423 -0.7484644 -0.5314523 6.643621 -0.7113357 12.26346 -4.455196 1.579525 22.12111 4.954112 2.434986 -18.23211 6.169509 -1.09549 -22.46129 11.38967 87.73747 22.06357 -11.28548 -0 0 18.97914 -25.43262 11.73182 13.31405 4.350223 -19.83514 -5.478249 -90.58315 16.40641 23.25812 0 0 -11.75727 5.134373 10.0949 6.132797
-27.47114 110.1854 3069.644 0.3854062 -6.838904 -7.83326 0.1610824 -7.509031 2.855204 -0 45.42896 -0 -1.440965 1.779033 -4.620601 -6.022028 4.573456 -11.87085 -0 15.91214 -0 -3.046855 -15.45653 17.87245 -0.7366651 -0.5926355 6.000806 -0.3707404 12.27078 -5.103311 1.555177 22.10194 5.115127 2.489307 -18.43467 6.309222 -1.039943 -21.50447 11.38512 88.9588 22.26369 -13.43674 -0 0 16.87162 -24.74405 11.82157 12.51292 4.661598 -20.83539 -5.749358 -89.11111 16.37454 20.4996 0 0 -14.51603 6.016415 10.24915 4.998632
-27.7629 110.5001 3075.134 0.2497457 -5.434293 -7.156554 1.052045 -13.07673 2.350449 -0 37.63967 -0 -2.716126 0.1945809 -4.353888 -5.766328 7.820508 -12.35439 -0 13.93389 -0 -2.057588 -16.80638 17.54617 -0.7206697 -0.670004 5.359919 -0.0169484 12.30411 -5.779534 1.517508 22.06034 5.282291 2.554969 -18.65681 6.435201 -0.9731987 -20.56272 11.40008 90.22956 22.45028 -15.65146 -0 0 14.74619 -24.0542 11.91792 11.70077 4.972427 -21.89175 -6.035765 -87.64503 16.20208 17.73391 0 0 -17.35817 6.964776 10.38934 3.782364
-28.15367 110.2702 3080.486 0.02262076 -4.133706 -6.613253 1.95254 -18.21553 1.673768 -0 28.66273 -0 -3.994865 -1.257806 -4.090237 -5.304299 10.59383 -12.3401 -0 12.37969 -0 -1.390314 -17.93011 16.92081 -0.7024375 -0.7583476 4.750203 0.3333123 12.35718 -6.450256 1.469755 22.00045 5.447914 2.628037 -18.88739 6.544079 -0.8977671 -19.67661 11.43112 91.48637 22.61501 -17.82158 -0 0 12.70277 -23.39121 12.01542 10.91466 5.268072 -22.94854 -6.320622 -86.26381 15.91395 15.09614 0 0 -20.14406 7.926635 10.50703 2.552684
-28.67703 109.5727 3085.866 -0.2363045 -3.162558 -6.178418 2.700089 -22.64693 0.9174265 -0 20.31357 -0 -5.026039 -2.056115 -3.962476 -4.820354 13.06401 -11.88219 -0 11.91706 -0 -1.231918 -18.74862 15.98164 -0.6837525 -0.8511088 4.202798 0.6607754 12.42266 -7.076589 1.416407 21.92908 5.602388 2.703184 -19.11385 6.632578 -0.8190302 -18.89065 11.47324 92.65567 22.75277 -19.82423 -0 0 10.85028 -22.78411 12.1053 10.19488 5.533281 -23.9421 -6.585936 -85.04448 15.55184 12.73095 0 0 -22.71331 8.844243 10.59969 1.383689
-29.34298 108.5844 3091.438 -0.4700698 -2.677296 -5.81915 3.219806 -25.96058 0.2176822 -0 14.03834 -0 -5.649111 -1.99412 -4.026531 -4.449891 15.15424 -11.08896 -0 13.11885 -0 -1.636165 -19.12548 14.82614 -0.6652508 -0.9420792 3.755877 0.942434 12.49684 -7.612439 1.361769 21.85355 5.73294 2.774388 -19.32332 6.69402 -0.7462387 -18.26408 11.52245 93.6484 22.86158 -21.51138 -0 0 9.320777 -22.26839 12.17492 9.590092 5.749856 -24.80059 -6.813941 -84.06883 15.1618 10.81389 0 0 -24.87124 9.659582 10.67104 0.3485851
